<mxfile host="app.diagrams.net" modified="2022-06-25T10:12:14.863Z" agent="5.0 (X11; Linux x86_64) AppleWebKit/537.36 (KHTML, like Gecko) Chrome/103.0.5060.53 Safari/537.36" etag="SUD19EBZn9n4ROobDggp" version="20.0.3" type="github">
  <diagram id="WpOWe6v5Jrajskt6-K5j" name="Page-1">
    <mxGraphModel dx="1422" dy="723" grid="1" gridSize="10" guides="1" tooltips="1" connect="1" arrows="1" fold="1" page="1" pageScale="1" pageWidth="1200" pageHeight="1920" math="0" shadow="0">
      <root>
        <mxCell id="0" />
        <mxCell id="1" parent="0" />
        <mxCell id="ctpyWPsM0HwGhFwjq_jE-1" value="AWS Cloud" style="points=[[0,0],[0.25,0],[0.5,0],[0.75,0],[1,0],[1,0.25],[1,0.5],[1,0.75],[1,1],[0.75,1],[0.5,1],[0.25,1],[0,1],[0,0.75],[0,0.5],[0,0.25]];outlineConnect=0;gradientColor=none;html=1;whiteSpace=wrap;fontSize=12;fontStyle=0;container=1;pointerEvents=0;collapsible=0;recursiveResize=0;shape=mxgraph.aws4.group;grIcon=mxgraph.aws4.group_aws_cloud_alt;strokeColor=#232F3E;fillColor=none;verticalAlign=top;align=left;spacingLeft=30;fontColor=#232F3E;dashed=0;" parent="1" vertex="1">
          <mxGeometry x="130" y="350" width="1060" height="960" as="geometry" />
        </mxCell>
        <mxCell id="F-TLm-vbEQwCQ7Gi8zJP-9" value="" style="outlineConnect=0;dashed=0;verticalLabelPosition=bottom;verticalAlign=top;align=center;html=1;shape=mxgraph.aws3.internet_gateway;fillColor=#F58534;gradientColor=none;rounded=0;opacity=70;" parent="ctpyWPsM0HwGhFwjq_jE-1" vertex="1">
          <mxGeometry x="527.5" y="-20" width="30" height="32" as="geometry" />
        </mxCell>
        <mxCell id="F-TLm-vbEQwCQ7Gi8zJP-11" value="IGW" style="text;html=1;align=center;verticalAlign=middle;resizable=0;points=[];autosize=1;strokeColor=none;fillColor=none;" parent="ctpyWPsM0HwGhFwjq_jE-1" vertex="1">
          <mxGeometry x="547.5" width="50" height="30" as="geometry" />
        </mxCell>
        <mxCell id="ctpyWPsM0HwGhFwjq_jE-9" value="Region" style="points=[[0,0],[0.25,0],[0.5,0],[0.75,0],[1,0],[1,0.25],[1,0.5],[1,0.75],[1,1],[0.75,1],[0.5,1],[0.25,1],[0,1],[0,0.75],[0,0.5],[0,0.25]];outlineConnect=0;gradientColor=none;html=1;whiteSpace=wrap;fontSize=12;fontStyle=0;container=1;pointerEvents=0;collapsible=0;recursiveResize=0;shape=mxgraph.aws4.group;grIcon=mxgraph.aws4.group_region;strokeColor=#147EBA;fillColor=none;verticalAlign=top;align=left;spacingLeft=30;fontColor=#147EBA;dashed=1;" parent="1" vertex="1">
          <mxGeometry x="160" y="380" width="1010" height="910" as="geometry" />
        </mxCell>
        <mxCell id="ctpyWPsM0HwGhFwjq_jE-2" value="VPC" style="points=[[0,0],[0.25,0],[0.5,0],[0.75,0],[1,0],[1,0.25],[1,0.5],[1,0.75],[1,1],[0.75,1],[0.5,1],[0.25,1],[0,1],[0,0.75],[0,0.5],[0,0.25]];outlineConnect=0;gradientColor=none;html=1;whiteSpace=wrap;fontSize=12;fontStyle=0;container=1;pointerEvents=0;collapsible=0;recursiveResize=0;shape=mxgraph.aws4.group;grIcon=mxgraph.aws4.group_vpc;strokeColor=#248814;fillColor=none;verticalAlign=top;align=left;spacingLeft=30;fontColor=#AAB7B8;dashed=0;" parent="ctpyWPsM0HwGhFwjq_jE-9" vertex="1">
          <mxGeometry x="20" y="50" width="960" height="840" as="geometry" />
        </mxCell>
        <mxCell id="SacY1gbERdZdVVYgPPZA-96" value="" style="fillColor=#EFF0F3;strokeColor=none;dashed=0;verticalAlign=top;fontStyle=0;fontColor=#232F3D;html=1;" vertex="1" parent="ctpyWPsM0HwGhFwjq_jE-2">
          <mxGeometry x="20" y="110" width="930" height="710" as="geometry" />
        </mxCell>
        <mxCell id="SacY1gbERdZdVVYgPPZA-29" value="" style="whiteSpace=wrap;html=1;" vertex="1" parent="ctpyWPsM0HwGhFwjq_jE-2">
          <mxGeometry x="357.5" y="390" width="120" height="330" as="geometry" />
        </mxCell>
        <mxCell id="SacY1gbERdZdVVYgPPZA-31" value="" style="whiteSpace=wrap;html=1;" vertex="1" parent="ctpyWPsM0HwGhFwjq_jE-2">
          <mxGeometry x="680" y="390" width="130" height="330" as="geometry" />
        </mxCell>
        <mxCell id="SacY1gbERdZdVVYgPPZA-30" value="" style="whiteSpace=wrap;html=1;" vertex="1" parent="ctpyWPsM0HwGhFwjq_jE-2">
          <mxGeometry x="517.5" y="390" width="122.5" height="330" as="geometry" />
        </mxCell>
        <mxCell id="SacY1gbERdZdVVYgPPZA-28" value="" style="whiteSpace=wrap;html=1;" vertex="1" parent="ctpyWPsM0HwGhFwjq_jE-2">
          <mxGeometry x="232.5" y="390" width="107.5" height="330" as="geometry" />
        </mxCell>
        <mxCell id="SacY1gbERdZdVVYgPPZA-25" value="" style="whiteSpace=wrap;html=1;" vertex="1" parent="ctpyWPsM0HwGhFwjq_jE-2">
          <mxGeometry x="103.75" y="390" width="112.5" height="330" as="geometry" />
        </mxCell>
        <mxCell id="SacY1gbERdZdVVYgPPZA-6" style="edgeStyle=orthogonalEdgeStyle;rounded=0;orthogonalLoop=1;jettySize=auto;html=1;exitX=0.5;exitY=1;exitDx=0;exitDy=0;exitPerimeter=0;entryX=-0.02;entryY=0.464;entryDx=0;entryDy=0;entryPerimeter=0;" edge="1" parent="ctpyWPsM0HwGhFwjq_jE-2" source="F-TLm-vbEQwCQ7Gi8zJP-1" target="SacY1gbERdZdVVYgPPZA-5">
          <mxGeometry relative="1" as="geometry" />
        </mxCell>
        <mxCell id="F-TLm-vbEQwCQ7Gi8zJP-1" value="" style="outlineConnect=0;dashed=0;verticalLabelPosition=bottom;verticalAlign=top;align=center;html=1;shape=mxgraph.aws3.application_load_balancer;fillColor=#F58534;gradientColor=none;" parent="ctpyWPsM0HwGhFwjq_jE-2" vertex="1">
          <mxGeometry x="431" y="56" width="46.5" height="42" as="geometry" />
        </mxCell>
        <mxCell id="F-TLm-vbEQwCQ7Gi8zJP-2" value="CIDR&lt;br&gt;10.10.0.0/16&lt;br&gt;" style="text;html=1;align=center;verticalAlign=middle;resizable=0;points=[];autosize=1;strokeColor=#666666;fillColor=#f5f5f5;opacity=70;rounded=0;fontColor=#333333;" parent="ctpyWPsM0HwGhFwjq_jE-2" vertex="1">
          <mxGeometry x="12.5" y="30" width="90" height="40" as="geometry" />
        </mxCell>
        <mxCell id="SacY1gbERdZdVVYgPPZA-4" value="Amazon EKS" style="sketch=0;outlineConnect=0;fontColor=#232F3E;gradientColor=none;strokeColor=#ffffff;fillColor=#232F3E;dashed=0;verticalLabelPosition=middle;verticalAlign=bottom;align=center;html=1;whiteSpace=wrap;fontSize=10;fontStyle=1;spacing=3;shape=mxgraph.aws4.productIcon;prIcon=mxgraph.aws4.eks;" vertex="1" parent="ctpyWPsM0HwGhFwjq_jE-2">
          <mxGeometry x="22.5" y="110" width="80" height="100" as="geometry" />
        </mxCell>
        <mxCell id="SacY1gbERdZdVVYgPPZA-12" style="edgeStyle=orthogonalEdgeStyle;rounded=0;orthogonalLoop=1;jettySize=auto;html=1;exitX=0.5;exitY=1;exitDx=0;exitDy=0;exitPerimeter=0;entryX=0.5;entryY=0;entryDx=0;entryDy=0;entryPerimeter=0;" edge="1" parent="ctpyWPsM0HwGhFwjq_jE-2" source="SacY1gbERdZdVVYgPPZA-5" target="SacY1gbERdZdVVYgPPZA-7">
          <mxGeometry relative="1" as="geometry" />
        </mxCell>
        <mxCell id="SacY1gbERdZdVVYgPPZA-13" style="edgeStyle=orthogonalEdgeStyle;rounded=0;orthogonalLoop=1;jettySize=auto;html=1;exitX=0.5;exitY=0;exitDx=0;exitDy=0;exitPerimeter=0;entryX=0.5;entryY=0;entryDx=0;entryDy=0;entryPerimeter=0;" edge="1" parent="ctpyWPsM0HwGhFwjq_jE-2" source="SacY1gbERdZdVVYgPPZA-5" target="SacY1gbERdZdVVYgPPZA-8">
          <mxGeometry relative="1" as="geometry" />
        </mxCell>
        <mxCell id="SacY1gbERdZdVVYgPPZA-5" value="" style="sketch=0;html=1;dashed=0;whitespace=wrap;fillColor=#2875E2;strokeColor=#ffffff;points=[[0.005,0.63,0],[0.1,0.2,0],[0.9,0.2,0],[0.5,0,0],[0.995,0.63,0],[0.72,0.99,0],[0.5,1,0],[0.28,0.99,0]];shape=mxgraph.kubernetes.icon;prIcon=ing;rotation=90;" vertex="1" parent="ctpyWPsM0HwGhFwjq_jE-2">
          <mxGeometry x="427.5" y="170" width="50" height="48" as="geometry" />
        </mxCell>
        <mxCell id="SacY1gbERdZdVVYgPPZA-41" style="edgeStyle=orthogonalEdgeStyle;rounded=0;orthogonalLoop=1;jettySize=auto;html=1;exitX=0.5;exitY=1;exitDx=0;exitDy=0;exitPerimeter=0;entryX=0.5;entryY=0;entryDx=0;entryDy=0;entryPerimeter=0;" edge="1" parent="ctpyWPsM0HwGhFwjq_jE-2" source="SacY1gbERdZdVVYgPPZA-7" target="SacY1gbERdZdVVYgPPZA-33">
          <mxGeometry relative="1" as="geometry" />
        </mxCell>
        <mxCell id="SacY1gbERdZdVVYgPPZA-42" style="edgeStyle=orthogonalEdgeStyle;rounded=0;orthogonalLoop=1;jettySize=auto;html=1;exitX=0.5;exitY=1;exitDx=0;exitDy=0;exitPerimeter=0;entryX=0.5;entryY=0;entryDx=0;entryDy=0;entryPerimeter=0;" edge="1" parent="ctpyWPsM0HwGhFwjq_jE-2" source="SacY1gbERdZdVVYgPPZA-7" target="SacY1gbERdZdVVYgPPZA-34">
          <mxGeometry relative="1" as="geometry" />
        </mxCell>
        <mxCell id="SacY1gbERdZdVVYgPPZA-47" style="edgeStyle=orthogonalEdgeStyle;rounded=0;orthogonalLoop=1;jettySize=auto;html=1;exitX=0.5;exitY=1;exitDx=0;exitDy=0;exitPerimeter=0;entryX=0.5;entryY=0;entryDx=0;entryDy=0;entryPerimeter=0;" edge="1" parent="ctpyWPsM0HwGhFwjq_jE-2" source="SacY1gbERdZdVVYgPPZA-7" target="SacY1gbERdZdVVYgPPZA-32">
          <mxGeometry relative="1" as="geometry" />
        </mxCell>
        <mxCell id="SacY1gbERdZdVVYgPPZA-7" value="" style="sketch=0;html=1;dashed=0;whitespace=wrap;fillColor=#2875E2;strokeColor=#ffffff;points=[[0.005,0.63,0],[0.1,0.2,0],[0.9,0.2,0],[0.5,0,0],[0.995,0.63,0],[0.72,0.99,0],[0.5,1,0],[0.28,0.99,0]];shape=mxgraph.kubernetes.icon;prIcon=svc" vertex="1" parent="ctpyWPsM0HwGhFwjq_jE-2">
          <mxGeometry x="260" y="270" width="50" height="48" as="geometry" />
        </mxCell>
        <mxCell id="SacY1gbERdZdVVYgPPZA-43" style="edgeStyle=orthogonalEdgeStyle;rounded=0;orthogonalLoop=1;jettySize=auto;html=1;exitX=0.5;exitY=1;exitDx=0;exitDy=0;exitPerimeter=0;entryX=0.5;entryY=0;entryDx=0;entryDy=0;entryPerimeter=0;" edge="1" parent="ctpyWPsM0HwGhFwjq_jE-2" source="SacY1gbERdZdVVYgPPZA-8" target="SacY1gbERdZdVVYgPPZA-35">
          <mxGeometry relative="1" as="geometry" />
        </mxCell>
        <mxCell id="SacY1gbERdZdVVYgPPZA-45" style="edgeStyle=orthogonalEdgeStyle;rounded=0;orthogonalLoop=1;jettySize=auto;html=1;exitX=0.5;exitY=1;exitDx=0;exitDy=0;exitPerimeter=0;entryX=0.5;entryY=0;entryDx=0;entryDy=0;entryPerimeter=0;" edge="1" parent="ctpyWPsM0HwGhFwjq_jE-2" source="SacY1gbERdZdVVYgPPZA-8" target="SacY1gbERdZdVVYgPPZA-36">
          <mxGeometry relative="1" as="geometry" />
        </mxCell>
        <mxCell id="SacY1gbERdZdVVYgPPZA-8" value="" style="sketch=0;html=1;dashed=0;whitespace=wrap;fillColor=#2875E2;strokeColor=#ffffff;points=[[0.005,0.63,0],[0.1,0.2,0],[0.9,0.2,0],[0.5,0,0],[0.995,0.63,0],[0.72,0.99,0],[0.5,1,0],[0.28,0.99,0]];shape=mxgraph.kubernetes.icon;prIcon=svc" vertex="1" parent="ctpyWPsM0HwGhFwjq_jE-2">
          <mxGeometry x="635" y="274" width="50" height="48" as="geometry" />
        </mxCell>
        <mxCell id="SacY1gbERdZdVVYgPPZA-14" value="" style="sketch=0;html=1;dashed=0;whitespace=wrap;fillColor=#2875E2;strokeColor=#ffffff;points=[[0.005,0.63,0],[0.1,0.2,0],[0.9,0.2,0],[0.5,0,0],[0.995,0.63,0],[0.72,0.99,0],[0.5,1,0],[0.28,0.99,0]];shape=mxgraph.kubernetes.icon;prIcon=node" vertex="1" parent="ctpyWPsM0HwGhFwjq_jE-2">
          <mxGeometry x="152.5" y="654" width="27.5" height="40" as="geometry" />
        </mxCell>
        <mxCell id="SacY1gbERdZdVVYgPPZA-16" value="" style="sketch=0;html=1;dashed=0;whitespace=wrap;fillColor=#2875E2;strokeColor=#ffffff;points=[[0.005,0.63,0],[0.1,0.2,0],[0.9,0.2,0],[0.5,0,0],[0.995,0.63,0],[0.72,0.99,0],[0.5,1,0],[0.28,0.99,0]];shape=mxgraph.kubernetes.icon;prIcon=node" vertex="1" parent="ctpyWPsM0HwGhFwjq_jE-2">
          <mxGeometry x="403.13" y="651.5" width="27.5" height="39" as="geometry" />
        </mxCell>
        <mxCell id="SacY1gbERdZdVVYgPPZA-18" value="" style="sketch=0;html=1;dashed=0;whitespace=wrap;fillColor=#2875E2;strokeColor=#ffffff;points=[[0.005,0.63,0],[0.1,0.2,0],[0.9,0.2,0],[0.5,0,0],[0.995,0.63,0],[0.72,0.99,0],[0.5,1,0],[0.28,0.99,0]];shape=mxgraph.kubernetes.icon;prIcon=node" vertex="1" parent="ctpyWPsM0HwGhFwjq_jE-2">
          <mxGeometry x="570.63" y="656" width="27.5" height="30" as="geometry" />
        </mxCell>
        <mxCell id="SacY1gbERdZdVVYgPPZA-19" value="" style="sketch=0;html=1;dashed=0;whitespace=wrap;fillColor=#2875E2;strokeColor=#ffffff;points=[[0.005,0.63,0],[0.1,0.2,0],[0.9,0.2,0],[0.5,0,0],[0.995,0.63,0],[0.72,0.99,0],[0.5,1,0],[0.28,0.99,0]];shape=mxgraph.kubernetes.icon;prIcon=node" vertex="1" parent="ctpyWPsM0HwGhFwjq_jE-2">
          <mxGeometry x="735.94" y="658.5" width="30" height="25" as="geometry" />
        </mxCell>
        <mxCell id="SacY1gbERdZdVVYgPPZA-20" value="Worker&lt;br&gt;Node 1" style="text;html=1;strokeColor=none;fillColor=none;align=center;verticalAlign=middle;whiteSpace=wrap;rounded=0;" vertex="1" parent="ctpyWPsM0HwGhFwjq_jE-2">
          <mxGeometry x="146.25" y="688" width="46.25" height="34" as="geometry" />
        </mxCell>
        <mxCell id="F-TLm-vbEQwCQ7Gi8zJP-12" value="" style="outlineConnect=0;dashed=0;verticalLabelPosition=bottom;verticalAlign=top;align=center;html=1;shape=mxgraph.aws3.router;fillColor=#F58534;gradientColor=none;rounded=0;opacity=70;" parent="ctpyWPsM0HwGhFwjq_jE-2" vertex="1">
          <mxGeometry x="437.5" y="-10" width="30" height="32" as="geometry" />
        </mxCell>
        <mxCell id="F-TLm-vbEQwCQ7Gi8zJP-17" style="edgeStyle=orthogonalEdgeStyle;rounded=0;orthogonalLoop=1;jettySize=auto;html=1;exitX=0.5;exitY=1;exitDx=0;exitDy=0;exitPerimeter=0;entryX=0.5;entryY=0;entryDx=0;entryDy=0;entryPerimeter=0;" parent="ctpyWPsM0HwGhFwjq_jE-2" source="F-TLm-vbEQwCQ7Gi8zJP-12" target="F-TLm-vbEQwCQ7Gi8zJP-1" edge="1">
          <mxGeometry relative="1" as="geometry" />
        </mxCell>
        <mxCell id="SacY1gbERdZdVVYgPPZA-32" value="" style="sketch=0;html=1;dashed=0;whitespace=wrap;fillColor=#2875E2;strokeColor=#ffffff;points=[[0.005,0.63,0],[0.1,0.2,0],[0.9,0.2,0],[0.5,0,0],[0.995,0.63,0],[0.72,0.99,0],[0.5,1,0],[0.28,0.99,0]];shape=mxgraph.kubernetes.icon;prIcon=pod" vertex="1" parent="ctpyWPsM0HwGhFwjq_jE-2">
          <mxGeometry x="135" y="400" width="50" height="48" as="geometry" />
        </mxCell>
        <mxCell id="SacY1gbERdZdVVYgPPZA-33" value="" style="sketch=0;html=1;dashed=0;whitespace=wrap;fillColor=#2875E2;strokeColor=#ffffff;points=[[0.005,0.63,0],[0.1,0.2,0],[0.9,0.2,0],[0.5,0,0],[0.995,0.63,0],[0.72,0.99,0],[0.5,1,0],[0.28,0.99,0]];shape=mxgraph.kubernetes.icon;prIcon=pod" vertex="1" parent="ctpyWPsM0HwGhFwjq_jE-2">
          <mxGeometry x="260" y="400" width="50" height="48" as="geometry" />
        </mxCell>
        <mxCell id="SacY1gbERdZdVVYgPPZA-34" value="" style="sketch=0;html=1;dashed=0;whitespace=wrap;fillColor=#2875E2;strokeColor=#ffffff;points=[[0.005,0.63,0],[0.1,0.2,0],[0.9,0.2,0],[0.5,0,0],[0.995,0.63,0],[0.72,0.99,0],[0.5,1,0],[0.28,0.99,0]];shape=mxgraph.kubernetes.icon;prIcon=pod" vertex="1" parent="ctpyWPsM0HwGhFwjq_jE-2">
          <mxGeometry x="391.88" y="400" width="50" height="48" as="geometry" />
        </mxCell>
        <mxCell id="SacY1gbERdZdVVYgPPZA-35" value="" style="sketch=0;html=1;dashed=0;whitespace=wrap;fillColor=#2875E2;strokeColor=#ffffff;points=[[0.005,0.63,0],[0.1,0.2,0],[0.9,0.2,0],[0.5,0,0],[0.995,0.63,0],[0.72,0.99,0],[0.5,1,0],[0.28,0.99,0]];shape=mxgraph.kubernetes.icon;prIcon=pod" vertex="1" parent="ctpyWPsM0HwGhFwjq_jE-2">
          <mxGeometry x="553.75" y="400" width="50" height="48" as="geometry" />
        </mxCell>
        <mxCell id="SacY1gbERdZdVVYgPPZA-36" value="" style="sketch=0;html=1;dashed=0;whitespace=wrap;fillColor=#2875E2;strokeColor=#ffffff;points=[[0.005,0.63,0],[0.1,0.2,0],[0.9,0.2,0],[0.5,0,0],[0.995,0.63,0],[0.72,0.99,0],[0.5,1,0],[0.28,0.99,0]];shape=mxgraph.kubernetes.icon;prIcon=pod" vertex="1" parent="ctpyWPsM0HwGhFwjq_jE-2">
          <mxGeometry x="720" y="400" width="50" height="48" as="geometry" />
        </mxCell>
        <mxCell id="F-TLm-vbEQwCQ7Gi8zJP-13" value="Router" style="text;html=1;align=center;verticalAlign=middle;resizable=0;points=[];autosize=1;strokeColor=none;fillColor=none;" parent="ctpyWPsM0HwGhFwjq_jE-2" vertex="1">
          <mxGeometry x="457.5" width="60" height="30" as="geometry" />
        </mxCell>
        <mxCell id="SacY1gbERdZdVVYgPPZA-53" value="" style="outlineConnect=0;dashed=0;verticalLabelPosition=bottom;verticalAlign=top;align=center;html=1;shape=mxgraph.aws3.ec2;fillColor=#F58534;gradientColor=none;" vertex="1" parent="ctpyWPsM0HwGhFwjq_jE-2">
          <mxGeometry x="103.75" y="689.5" width="30" height="33" as="geometry" />
        </mxCell>
        <mxCell id="SacY1gbERdZdVVYgPPZA-55" value="" style="outlineConnect=0;dashed=0;verticalLabelPosition=bottom;verticalAlign=top;align=center;html=1;shape=mxgraph.aws3.ec2;fillColor=#F58534;gradientColor=none;" vertex="1" parent="ctpyWPsM0HwGhFwjq_jE-2">
          <mxGeometry x="357.5" y="687" width="30" height="33" as="geometry" />
        </mxCell>
        <mxCell id="SacY1gbERdZdVVYgPPZA-56" value="" style="outlineConnect=0;dashed=0;verticalLabelPosition=bottom;verticalAlign=top;align=center;html=1;shape=mxgraph.aws3.ec2;fillColor=#F58534;gradientColor=none;" vertex="1" parent="ctpyWPsM0HwGhFwjq_jE-2">
          <mxGeometry x="517.5" y="688" width="30" height="33" as="geometry" />
        </mxCell>
        <mxCell id="SacY1gbERdZdVVYgPPZA-57" value="" style="outlineConnect=0;dashed=0;verticalLabelPosition=bottom;verticalAlign=top;align=center;html=1;shape=mxgraph.aws3.ec2;fillColor=#F58534;gradientColor=none;" vertex="1" parent="ctpyWPsM0HwGhFwjq_jE-2">
          <mxGeometry x="680" y="688" width="30" height="33" as="geometry" />
        </mxCell>
        <mxCell id="SacY1gbERdZdVVYgPPZA-75" value="Ingress" style="text;html=1;align=center;verticalAlign=middle;resizable=0;points=[];autosize=1;strokeColor=none;fillColor=none;" vertex="1" parent="ctpyWPsM0HwGhFwjq_jE-2">
          <mxGeometry x="422.5" y="210" width="60" height="30" as="geometry" />
        </mxCell>
        <mxCell id="F-TLm-vbEQwCQ7Gi8zJP-14" value="Ingress Application LB" style="text;align=center;verticalAlign=middle;resizable=0;points=[];autosize=1;strokeColor=none;fillColor=none;html=1;" parent="ctpyWPsM0HwGhFwjq_jE-2" vertex="1">
          <mxGeometry x="467.5" y="56" width="140" height="30" as="geometry" />
        </mxCell>
        <mxCell id="SacY1gbERdZdVVYgPPZA-76" value="&lt;font color=&quot;#0000ff&quot;&gt;/pfm-admin&lt;/font&gt;" style="text;html=1;align=center;verticalAlign=middle;resizable=0;points=[];autosize=1;strokeColor=#6c8ebf;fillColor=#dae8fc;" vertex="1" parent="ctpyWPsM0HwGhFwjq_jE-2">
          <mxGeometry x="547.5" y="160" width="80" height="30" as="geometry" />
        </mxCell>
        <mxCell id="SacY1gbERdZdVVYgPPZA-77" value="/pfm-api&lt;br&gt;" style="text;html=1;align=center;verticalAlign=middle;resizable=0;points=[];autosize=1;strokeColor=#d6b656;fillColor=#fff2cc;" vertex="1" parent="ctpyWPsM0HwGhFwjq_jE-2">
          <mxGeometry x="310" y="160" width="70" height="30" as="geometry" />
        </mxCell>
        <mxCell id="SacY1gbERdZdVVYgPPZA-78" value="&lt;font color=&quot;#3333ff&quot;&gt;PFM Admin&lt;br&gt;&amp;nbsp;SVC&lt;/font&gt;" style="text;html=1;align=center;verticalAlign=middle;resizable=0;points=[];autosize=1;strokeColor=none;fillColor=none;" vertex="1" parent="ctpyWPsM0HwGhFwjq_jE-2">
          <mxGeometry x="680" y="282" width="90" height="40" as="geometry" />
        </mxCell>
        <mxCell id="SacY1gbERdZdVVYgPPZA-79" value="&lt;font color=&quot;#994c00&quot;&gt;PFM Customer&lt;br&gt;&amp;nbsp;SVC&lt;/font&gt;" style="text;html=1;align=center;verticalAlign=middle;resizable=0;points=[];autosize=1;strokeColor=none;fillColor=none;" vertex="1" parent="ctpyWPsM0HwGhFwjq_jE-2">
          <mxGeometry x="162.5" y="278" width="100" height="40" as="geometry" />
        </mxCell>
        <mxCell id="SacY1gbERdZdVVYgPPZA-80" value="&lt;font color=&quot;#3333ff&quot;&gt;PFM Admin &lt;br&gt;POD&lt;/font&gt;" style="text;html=1;align=center;verticalAlign=middle;resizable=0;points=[];autosize=1;strokeColor=none;fillColor=none;" vertex="1" parent="ctpyWPsM0HwGhFwjq_jE-2">
          <mxGeometry x="537.5" y="448" width="90" height="40" as="geometry" />
        </mxCell>
        <mxCell id="SacY1gbERdZdVVYgPPZA-81" value="&lt;font color=&quot;#994c00&quot;&gt;PFM Customer&lt;br&gt;&amp;nbsp;POD&lt;/font&gt;" style="text;html=1;align=center;verticalAlign=middle;resizable=0;points=[];autosize=1;strokeColor=none;fillColor=none;" vertex="1" parent="ctpyWPsM0HwGhFwjq_jE-2">
          <mxGeometry x="235" y="448" width="100" height="40" as="geometry" />
        </mxCell>
        <mxCell id="SacY1gbERdZdVVYgPPZA-82" value="&lt;font color=&quot;#3333ff&quot;&gt;PFM Admin &lt;br&gt;POD&lt;/font&gt;" style="text;html=1;align=center;verticalAlign=middle;resizable=0;points=[];autosize=1;strokeColor=none;fillColor=none;" vertex="1" parent="ctpyWPsM0HwGhFwjq_jE-2">
          <mxGeometry x="700" y="448" width="90" height="40" as="geometry" />
        </mxCell>
        <mxCell id="SacY1gbERdZdVVYgPPZA-83" value="&lt;font color=&quot;#994c00&quot;&gt;PFM Customer&lt;br&gt;&amp;nbsp;POD&lt;/font&gt;" style="text;html=1;align=center;verticalAlign=middle;resizable=0;points=[];autosize=1;strokeColor=none;fillColor=none;" vertex="1" parent="ctpyWPsM0HwGhFwjq_jE-2">
          <mxGeometry x="110" y="448" width="100" height="40" as="geometry" />
        </mxCell>
        <mxCell id="SacY1gbERdZdVVYgPPZA-84" value="&lt;font color=&quot;#994c00&quot;&gt;PFM Customer&lt;br&gt;&amp;nbsp;POD&lt;/font&gt;" style="text;html=1;align=center;verticalAlign=middle;resizable=0;points=[];autosize=1;strokeColor=none;fillColor=none;" vertex="1" parent="ctpyWPsM0HwGhFwjq_jE-2">
          <mxGeometry x="366.88" y="448" width="100" height="40" as="geometry" />
        </mxCell>
        <mxCell id="SacY1gbERdZdVVYgPPZA-87" value="Worker&lt;br&gt;Node 3" style="text;html=1;strokeColor=none;fillColor=none;align=center;verticalAlign=middle;whiteSpace=wrap;rounded=0;" vertex="1" parent="ctpyWPsM0HwGhFwjq_jE-2">
          <mxGeometry x="398.76" y="689" width="46.25" height="34" as="geometry" />
        </mxCell>
        <mxCell id="SacY1gbERdZdVVYgPPZA-88" value="Worker&lt;br&gt;Node 4" style="text;html=1;strokeColor=none;fillColor=none;align=center;verticalAlign=middle;whiteSpace=wrap;rounded=0;" vertex="1" parent="ctpyWPsM0HwGhFwjq_jE-2">
          <mxGeometry x="561.26" y="690.5" width="46.25" height="34" as="geometry" />
        </mxCell>
        <mxCell id="SacY1gbERdZdVVYgPPZA-89" value="Worker&lt;br&gt;Node 5" style="text;html=1;strokeColor=none;fillColor=none;align=center;verticalAlign=middle;whiteSpace=wrap;rounded=0;" vertex="1" parent="ctpyWPsM0HwGhFwjq_jE-2">
          <mxGeometry x="730" y="688" width="41.88" height="34" as="geometry" />
        </mxCell>
        <mxCell id="SacY1gbERdZdVVYgPPZA-91" value="" style="sketch=0;html=1;dashed=0;whitespace=wrap;fillColor=#2875E2;strokeColor=#ffffff;points=[[0.005,0.63,0],[0.1,0.2,0],[0.9,0.2,0],[0.5,0,0],[0.995,0.63,0],[0.72,0.99,0],[0.5,1,0],[0.28,0.99,0]];shape=mxgraph.kubernetes.icon;prIcon=pod" vertex="1" parent="ctpyWPsM0HwGhFwjq_jE-2">
          <mxGeometry x="261.25" y="502" width="50" height="48" as="geometry" />
        </mxCell>
        <mxCell id="SacY1gbERdZdVVYgPPZA-92" value="" style="sketch=0;html=1;dashed=0;whitespace=wrap;fillColor=#2875E2;strokeColor=#ffffff;points=[[0.005,0.63,0],[0.1,0.2,0],[0.9,0.2,0],[0.5,0,0],[0.995,0.63,0],[0.72,0.99,0],[0.5,1,0],[0.28,0.99,0]];shape=mxgraph.kubernetes.icon;prIcon=pod" vertex="1" parent="ctpyWPsM0HwGhFwjq_jE-2">
          <mxGeometry x="725.94" y="502" width="50" height="48" as="geometry" />
        </mxCell>
        <mxCell id="SacY1gbERdZdVVYgPPZA-93" value="" style="sketch=0;html=1;dashed=0;whitespace=wrap;fillColor=#2875E2;strokeColor=#ffffff;points=[[0.005,0.63,0],[0.1,0.2,0],[0.9,0.2,0],[0.5,0,0],[0.995,0.63,0],[0.72,0.99,0],[0.5,1,0],[0.28,0.99,0]];shape=mxgraph.kubernetes.icon;prIcon=pod" vertex="1" parent="ctpyWPsM0HwGhFwjq_jE-2">
          <mxGeometry x="396.88" y="502" width="50" height="48" as="geometry" />
        </mxCell>
        <mxCell id="SacY1gbERdZdVVYgPPZA-94" value="&lt;font color=&quot;#99004d&quot;&gt;PFM Analytics &lt;br&gt;Backend&lt;br&gt;POD&lt;/font&gt;" style="text;html=1;align=center;verticalAlign=middle;resizable=0;points=[];autosize=1;strokeColor=none;fillColor=none;fontColor=#3333FF;" vertex="1" parent="ctpyWPsM0HwGhFwjq_jE-2">
          <mxGeometry x="240" y="550" width="100" height="60" as="geometry" />
        </mxCell>
        <mxCell id="SacY1gbERdZdVVYgPPZA-97" value="Source to &lt;br&gt;Staging ETL &lt;br&gt;POD" style="text;html=1;align=center;verticalAlign=middle;resizable=0;points=[];autosize=1;strokeColor=none;fillColor=none;fontColor=#99004D;" vertex="1" parent="ctpyWPsM0HwGhFwjq_jE-2">
          <mxGeometry x="375" y="550" width="90" height="60" as="geometry" />
        </mxCell>
        <mxCell id="SacY1gbERdZdVVYgPPZA-98" value="" style="sketch=0;html=1;dashed=0;whitespace=wrap;fillColor=#2875E2;strokeColor=#ffffff;points=[[0.005,0.63,0],[0.1,0.2,0],[0.9,0.2,0],[0.5,0,0],[0.995,0.63,0],[0.72,0.99,0],[0.5,1,0],[0.28,0.99,0]];shape=mxgraph.kubernetes.icon;prIcon=node" vertex="1" parent="ctpyWPsM0HwGhFwjq_jE-2">
          <mxGeometry x="282.5" y="650" width="27.5" height="42" as="geometry" />
        </mxCell>
        <mxCell id="SacY1gbERdZdVVYgPPZA-99" value="Worker&lt;br&gt;Node 2" style="text;html=1;strokeColor=none;fillColor=none;align=center;verticalAlign=middle;whiteSpace=wrap;rounded=0;" vertex="1" parent="ctpyWPsM0HwGhFwjq_jE-2">
          <mxGeometry x="273.12" y="694" width="46.25" height="21" as="geometry" />
        </mxCell>
        <mxCell id="SacY1gbERdZdVVYgPPZA-100" value="" style="outlineConnect=0;dashed=0;verticalLabelPosition=bottom;verticalAlign=top;align=center;html=1;shape=mxgraph.aws3.ec2;fillColor=#F58534;gradientColor=none;" vertex="1" parent="ctpyWPsM0HwGhFwjq_jE-2">
          <mxGeometry x="232.5" y="686" width="30" height="33" as="geometry" />
        </mxCell>
        <mxCell id="SacY1gbERdZdVVYgPPZA-101" value="PFM Analytics&amp;nbsp;&lt;br&gt;ETL&lt;br&gt;POD" style="text;html=1;align=center;verticalAlign=middle;resizable=0;points=[];autosize=1;strokeColor=none;fillColor=none;fontColor=#99004D;" vertex="1" parent="ctpyWPsM0HwGhFwjq_jE-2">
          <mxGeometry x="698.75" y="550" width="100" height="60" as="geometry" />
        </mxCell>
        <mxCell id="ctpyWPsM0HwGhFwjq_jE-11" value="&lt;font color=&quot;#d063ff&quot;&gt;us-east-1&lt;/font&gt;" style="text;html=1;align=center;verticalAlign=middle;resizable=0;points=[];autosize=1;strokeColor=none;fillColor=none;" parent="ctpyWPsM0HwGhFwjq_jE-9" vertex="1">
          <mxGeometry x="15" y="15" width="70" height="30" as="geometry" />
        </mxCell>
        <mxCell id="F-TLm-vbEQwCQ7Gi8zJP-16" style="edgeStyle=orthogonalEdgeStyle;rounded=0;orthogonalLoop=1;jettySize=auto;html=1;entryX=0.5;entryY=0;entryDx=0;entryDy=0;entryPerimeter=0;" parent="1" source="F-TLm-vbEQwCQ7Gi8zJP-9" target="F-TLm-vbEQwCQ7Gi8zJP-12" edge="1">
          <mxGeometry relative="1" as="geometry" />
        </mxCell>
        <mxCell id="SacY1gbERdZdVVYgPPZA-3" style="edgeStyle=orthogonalEdgeStyle;rounded=0;orthogonalLoop=1;jettySize=auto;html=1;entryX=0.5;entryY=0;entryDx=0;entryDy=0;entryPerimeter=0;" edge="1" parent="1" source="F-TLm-vbEQwCQ7Gi8zJP-18" target="F-TLm-vbEQwCQ7Gi8zJP-9">
          <mxGeometry relative="1" as="geometry" />
        </mxCell>
        <mxCell id="F-TLm-vbEQwCQ7Gi8zJP-18" value="users" style="sketch=0;outlineConnect=0;gradientColor=none;fontColor=#545B64;strokeColor=none;fillColor=#879196;dashed=0;verticalLabelPosition=bottom;verticalAlign=top;align=center;html=1;fontSize=12;fontStyle=0;aspect=fixed;shape=mxgraph.aws4.illustration_users;pointerEvents=1;rounded=0;opacity=70;" parent="1" vertex="1">
          <mxGeometry x="642.5" y="150" width="60" height="60" as="geometry" />
        </mxCell>
      </root>
    </mxGraphModel>
  </diagram>
</mxfile>
